<svg xmlns="http://www.w3.org/2000/svg" width="42.148" height="45" viewBox="0 0 42.148 45"><g transform="translate(-59 -5.937)"><path d="M22.969,45A23.062,23.062,0,0,1,6.727,38.41a22.161,22.161,0,0,1-4.084-26.4A22.842,22.842,0,0,1,9.68,4.146v36.6H26.535c6.4,0,11.945-2.082,15.613-5.863A23.061,23.061,0,0,1,22.969,45ZM26.11,33.7H18.266v-23H26.11a12.673,12.673,0,0,1,8.858,3.087A11.152,11.152,0,0,1,38.3,22.2a11.152,11.152,0,0,1-3.332,8.414A12.673,12.673,0,0,1,26.11,33.7ZM40.661,8.152c-3.627-2.946-8.512-4.5-14.126-4.5H10.424a23.321,23.321,0,0,1,30.239,4.5Z" transform="translate(59 5.937)" fill="#fff"/></g></svg>